<mxfile host="Electron" modified="2023-12-18T20:27:11.962Z" agent="Mozilla/5.0 (Windows NT 10.0; Win64; x64) AppleWebKit/537.36 (KHTML, like Gecko) draw.io/21.6.8 Chrome/114.0.5735.289 Electron/25.5.0 Safari/537.36" etag="CUyO7oMQgx9yA4A5atap" version="21.6.8" type="device">
  <diagram name="Página-1" id="M-aVUU8le2SYxHli1-5D">
    <mxGraphModel dx="1182" dy="1510" grid="1" gridSize="10" guides="1" tooltips="1" connect="1" arrows="1" fold="1" page="1" pageScale="1" pageWidth="1169" pageHeight="827" math="0" shadow="0">
      <root>
        <mxCell id="0" />
        <mxCell id="1" parent="0" />
        <mxCell id="I0plkO9ro6BUK9R8KUUb-1" value="CLIENTE" style="swimlane;fontStyle=0;childLayout=stackLayout;horizontal=1;startSize=30;horizontalStack=0;resizeParent=1;resizeParentMax=0;resizeLast=0;collapsible=1;marginBottom=0;whiteSpace=wrap;html=1;gradientColor=none;rounded=1;align=center;" vertex="1" parent="1">
          <mxGeometry x="670" y="450" width="140" height="150" as="geometry" />
        </mxCell>
        <mxCell id="I0plkO9ro6BUK9R8KUUb-2" value="Número de Pasaporte" style="text;strokeColor=none;fillColor=none;align=center;verticalAlign=middle;spacingLeft=4;spacingRight=4;overflow=hidden;points=[[0,0.5],[1,0.5]];portConstraint=eastwest;rotatable=0;whiteSpace=wrap;html=1;rounded=1;" vertex="1" parent="I0plkO9ro6BUK9R8KUUb-1">
          <mxGeometry y="30" width="140" height="30" as="geometry" />
        </mxCell>
        <mxCell id="I0plkO9ro6BUK9R8KUUb-3" value="Nombre" style="text;strokeColor=none;fillColor=none;align=center;verticalAlign=middle;spacingLeft=4;spacingRight=4;overflow=hidden;points=[[0,0.5],[1,0.5]];portConstraint=eastwest;rotatable=0;whiteSpace=wrap;html=1;" vertex="1" parent="I0plkO9ro6BUK9R8KUUb-1">
          <mxGeometry y="60" width="140" height="30" as="geometry" />
        </mxCell>
        <mxCell id="I0plkO9ro6BUK9R8KUUb-4" value="Número de Tarjeta" style="text;strokeColor=none;fillColor=none;align=center;verticalAlign=middle;spacingLeft=4;spacingRight=4;overflow=hidden;points=[[0,0.5],[1,0.5]];portConstraint=eastwest;rotatable=0;whiteSpace=wrap;html=1;" vertex="1" parent="I0plkO9ro6BUK9R8KUUb-1">
          <mxGeometry y="90" width="140" height="30" as="geometry" />
        </mxCell>
        <mxCell id="I0plkO9ro6BUK9R8KUUb-10" value="Contraseña" style="text;strokeColor=none;fillColor=none;align=center;verticalAlign=middle;spacingLeft=4;spacingRight=4;overflow=hidden;points=[[0,0.5],[1,0.5]];portConstraint=eastwest;rotatable=0;whiteSpace=wrap;html=1;" vertex="1" parent="I0plkO9ro6BUK9R8KUUb-1">
          <mxGeometry y="120" width="140" height="30" as="geometry" />
        </mxCell>
        <mxCell id="I0plkO9ro6BUK9R8KUUb-5" value="EMPLEADO" style="swimlane;fontStyle=0;childLayout=stackLayout;horizontal=1;startSize=30;horizontalStack=0;resizeParent=1;resizeParentMax=0;resizeLast=0;collapsible=1;marginBottom=0;whiteSpace=wrap;html=1;rounded=1;align=center;" vertex="1" parent="1">
          <mxGeometry x="380" width="140" height="150" as="geometry" />
        </mxCell>
        <mxCell id="I0plkO9ro6BUK9R8KUUb-6" value="Usuario" style="text;strokeColor=none;fillColor=none;align=center;verticalAlign=middle;spacingLeft=4;spacingRight=4;overflow=hidden;points=[[0,0.5],[1,0.5]];portConstraint=eastwest;rotatable=0;whiteSpace=wrap;html=1;" vertex="1" parent="I0plkO9ro6BUK9R8KUUb-5">
          <mxGeometry y="30" width="140" height="30" as="geometry" />
        </mxCell>
        <mxCell id="I0plkO9ro6BUK9R8KUUb-7" value="Contraseña" style="text;strokeColor=none;fillColor=none;align=center;verticalAlign=middle;spacingLeft=4;spacingRight=4;overflow=hidden;points=[[0,0.5],[1,0.5]];portConstraint=eastwest;rotatable=0;whiteSpace=wrap;html=1;" vertex="1" parent="I0plkO9ro6BUK9R8KUUb-5">
          <mxGeometry y="60" width="140" height="30" as="geometry" />
        </mxCell>
        <mxCell id="I0plkO9ro6BUK9R8KUUb-8" value="Nombre" style="text;strokeColor=none;fillColor=none;align=center;verticalAlign=middle;spacingLeft=4;spacingRight=4;overflow=hidden;points=[[0,0.5],[1,0.5]];portConstraint=eastwest;rotatable=0;whiteSpace=wrap;html=1;" vertex="1" parent="I0plkO9ro6BUK9R8KUUb-5">
          <mxGeometry y="90" width="140" height="30" as="geometry" />
        </mxCell>
        <mxCell id="I0plkO9ro6BUK9R8KUUb-9" value="Labor" style="text;strokeColor=none;fillColor=none;align=center;verticalAlign=middle;spacingLeft=4;spacingRight=4;overflow=hidden;points=[[0,0.5],[1,0.5]];portConstraint=eastwest;rotatable=0;whiteSpace=wrap;html=1;" vertex="1" parent="I0plkO9ro6BUK9R8KUUb-5">
          <mxGeometry y="120" width="140" height="30" as="geometry" />
        </mxCell>
        <mxCell id="I0plkO9ro6BUK9R8KUUb-11" value="AEROPUERTO" style="swimlane;fontStyle=0;childLayout=stackLayout;horizontal=1;startSize=30;horizontalStack=0;resizeParent=1;resizeParentMax=0;resizeLast=0;collapsible=1;marginBottom=0;whiteSpace=wrap;html=1;rounded=1;align=center;" vertex="1" parent="1">
          <mxGeometry x="670" y="200" width="140" height="180" as="geometry" />
        </mxCell>
        <mxCell id="I0plkO9ro6BUK9R8KUUb-12" value="Código" style="text;strokeColor=none;fillColor=none;align=center;verticalAlign=middle;spacingLeft=4;spacingRight=4;overflow=hidden;points=[[0,0.5],[1,0.5]];portConstraint=eastwest;rotatable=0;whiteSpace=wrap;html=1;" vertex="1" parent="I0plkO9ro6BUK9R8KUUb-11">
          <mxGeometry y="30" width="140" height="30" as="geometry" />
        </mxCell>
        <mxCell id="I0plkO9ro6BUK9R8KUUb-13" value="Nombre" style="text;strokeColor=none;fillColor=none;align=center;verticalAlign=middle;spacingLeft=4;spacingRight=4;overflow=hidden;points=[[0,0.5],[1,0.5]];portConstraint=eastwest;rotatable=0;whiteSpace=wrap;html=1;" vertex="1" parent="I0plkO9ro6BUK9R8KUUb-11">
          <mxGeometry y="60" width="140" height="30" as="geometry" />
        </mxCell>
        <mxCell id="I0plkO9ro6BUK9R8KUUb-14" value="Dirección" style="text;strokeColor=none;fillColor=none;align=center;verticalAlign=middle;spacingLeft=4;spacingRight=4;overflow=hidden;points=[[0,0.5],[1,0.5]];portConstraint=eastwest;rotatable=0;whiteSpace=wrap;html=1;" vertex="1" parent="I0plkO9ro6BUK9R8KUUb-11">
          <mxGeometry y="90" width="140" height="30" as="geometry" />
        </mxCell>
        <mxCell id="I0plkO9ro6BUK9R8KUUb-17" value="Impuesto de partida" style="text;strokeColor=none;fillColor=none;align=center;verticalAlign=middle;spacingLeft=4;spacingRight=4;overflow=hidden;points=[[0,0.5],[1,0.5]];portConstraint=eastwest;rotatable=0;whiteSpace=wrap;html=1;" vertex="1" parent="I0plkO9ro6BUK9R8KUUb-11">
          <mxGeometry y="120" width="140" height="30" as="geometry" />
        </mxCell>
        <mxCell id="I0plkO9ro6BUK9R8KUUb-18" value="Impuesto de llegada" style="text;strokeColor=none;fillColor=none;align=center;verticalAlign=middle;spacingLeft=4;spacingRight=4;overflow=hidden;points=[[0,0.5],[1,0.5]];portConstraint=eastwest;rotatable=0;whiteSpace=wrap;html=1;" vertex="1" parent="I0plkO9ro6BUK9R8KUUb-11">
          <mxGeometry y="150" width="140" height="30" as="geometry" />
        </mxCell>
        <mxCell id="I0plkO9ro6BUK9R8KUUb-20" value="VUELO" style="swimlane;fontStyle=0;childLayout=stackLayout;horizontal=1;startSize=30;horizontalStack=0;resizeParent=1;resizeParentMax=0;resizeLast=0;collapsible=1;marginBottom=0;whiteSpace=wrap;html=1;gradientColor=none;rounded=1;align=center;" vertex="1" parent="1">
          <mxGeometry x="670" y="-50" width="140" height="180" as="geometry" />
        </mxCell>
        <mxCell id="I0plkO9ro6BUK9R8KUUb-21" value="Código" style="text;strokeColor=none;fillColor=none;align=center;verticalAlign=middle;spacingLeft=4;spacingRight=4;overflow=hidden;points=[[0,0.5],[1,0.5]];portConstraint=eastwest;rotatable=0;whiteSpace=wrap;html=1;rounded=1;" vertex="1" parent="I0plkO9ro6BUK9R8KUUb-20">
          <mxGeometry y="30" width="140" height="30" as="geometry" />
        </mxCell>
        <mxCell id="I0plkO9ro6BUK9R8KUUb-22" value="Fecha y hora de salida" style="text;strokeColor=none;fillColor=none;align=center;verticalAlign=middle;spacingLeft=4;spacingRight=4;overflow=hidden;points=[[0,0.5],[1,0.5]];portConstraint=eastwest;rotatable=0;whiteSpace=wrap;html=1;" vertex="1" parent="I0plkO9ro6BUK9R8KUUb-20">
          <mxGeometry y="60" width="140" height="30" as="geometry" />
        </mxCell>
        <mxCell id="I0plkO9ro6BUK9R8KUUb-23" value="Fecha y hora de llegada" style="text;strokeColor=none;fillColor=none;align=center;verticalAlign=middle;spacingLeft=4;spacingRight=4;overflow=hidden;points=[[0,0.5],[1,0.5]];portConstraint=eastwest;rotatable=0;whiteSpace=wrap;html=1;" vertex="1" parent="I0plkO9ro6BUK9R8KUUb-20">
          <mxGeometry y="90" width="140" height="30" as="geometry" />
        </mxCell>
        <mxCell id="I0plkO9ro6BUK9R8KUUb-24" value="Precio" style="text;strokeColor=none;fillColor=none;align=center;verticalAlign=middle;spacingLeft=4;spacingRight=4;overflow=hidden;points=[[0,0.5],[1,0.5]];portConstraint=eastwest;rotatable=0;whiteSpace=wrap;html=1;" vertex="1" parent="I0plkO9ro6BUK9R8KUUb-20">
          <mxGeometry y="120" width="140" height="30" as="geometry" />
        </mxCell>
        <mxCell id="I0plkO9ro6BUK9R8KUUb-25" value="Cantidad de asientos" style="text;strokeColor=none;fillColor=none;align=center;verticalAlign=middle;spacingLeft=4;spacingRight=4;overflow=hidden;points=[[0,0.5],[1,0.5]];portConstraint=eastwest;rotatable=0;whiteSpace=wrap;html=1;" vertex="1" parent="I0plkO9ro6BUK9R8KUUb-20">
          <mxGeometry y="150" width="140" height="30" as="geometry" />
        </mxCell>
        <mxCell id="I0plkO9ro6BUK9R8KUUb-27" value="" style="endArrow=none;html=1;rounded=1;entryX=0;entryY=0.5;entryDx=0;entryDy=0;exitX=0.001;exitY=0.006;exitDx=0;exitDy=0;align=center;exitPerimeter=0;startArrow=openThin;startFill=0;" edge="1" parent="1" source="I0plkO9ro6BUK9R8KUUb-12">
          <mxGeometry width="50" height="50" relative="1" as="geometry">
            <mxPoint x="669.4399999999999" y="230.60000000000014" as="sourcePoint" />
            <mxPoint x="670" y="-5" as="targetPoint" />
            <Array as="points">
              <mxPoint x="640" y="230" />
              <mxPoint x="640" y="-5" />
            </Array>
          </mxGeometry>
        </mxCell>
        <mxCell id="I0plkO9ro6BUK9R8KUUb-28" value="PASAJE" style="swimlane;fontStyle=0;childLayout=stackLayout;horizontal=1;startSize=30;horizontalStack=0;resizeParent=1;resizeParentMax=0;resizeLast=0;collapsible=1;marginBottom=0;whiteSpace=wrap;html=1;gradientColor=none;rounded=1;align=center;" vertex="1" parent="1">
          <mxGeometry x="960" y="60" width="140" height="120" as="geometry" />
        </mxCell>
        <mxCell id="I0plkO9ro6BUK9R8KUUb-29" value="Número de Pasaje" style="text;strokeColor=none;fillColor=none;align=center;verticalAlign=middle;spacingLeft=4;spacingRight=4;overflow=hidden;points=[[0,0.5],[1,0.5]];portConstraint=eastwest;rotatable=0;whiteSpace=wrap;html=1;rounded=1;" vertex="1" parent="I0plkO9ro6BUK9R8KUUb-28">
          <mxGeometry y="30" width="140" height="30" as="geometry" />
        </mxCell>
        <mxCell id="I0plkO9ro6BUK9R8KUUb-30" value="Fecha de compra" style="text;strokeColor=none;fillColor=none;align=center;verticalAlign=middle;spacingLeft=4;spacingRight=4;overflow=hidden;points=[[0,0.5],[1,0.5]];portConstraint=eastwest;rotatable=0;whiteSpace=wrap;html=1;" vertex="1" parent="I0plkO9ro6BUK9R8KUUb-28">
          <mxGeometry y="60" width="140" height="30" as="geometry" />
        </mxCell>
        <mxCell id="I0plkO9ro6BUK9R8KUUb-31" value="Precio" style="text;strokeColor=none;fillColor=none;align=center;verticalAlign=middle;spacingLeft=4;spacingRight=4;overflow=hidden;points=[[0,0.5],[1,0.5]];portConstraint=eastwest;rotatable=0;whiteSpace=wrap;html=1;" vertex="1" parent="I0plkO9ro6BUK9R8KUUb-28">
          <mxGeometry y="90" width="140" height="30" as="geometry" />
        </mxCell>
        <mxCell id="I0plkO9ro6BUK9R8KUUb-38" value="" style="endArrow=none;html=1;rounded=1;exitX=0;exitY=0.25;exitDx=0;exitDy=0;startArrow=openThin;startFill=0;" edge="1" parent="1">
          <mxGeometry width="50" height="50" relative="1" as="geometry">
            <mxPoint x="810" y="-19.579999999999927" as="sourcePoint" />
            <mxPoint x="970" y="90" as="targetPoint" />
            <Array as="points">
              <mxPoint x="880" y="-20" />
              <mxPoint x="880" y="90" />
            </Array>
          </mxGeometry>
        </mxCell>
        <mxCell id="I0plkO9ro6BUK9R8KUUb-39" value="" style="endArrow=none;html=1;rounded=1;entryX=0;entryY=0.5;entryDx=0;entryDy=0;exitX=1;exitY=0.5;exitDx=0;exitDy=0;startArrow=openThin;startFill=0;" edge="1" parent="1" source="I0plkO9ro6BUK9R8KUUb-2" target="I0plkO9ro6BUK9R8KUUb-29">
          <mxGeometry width="50" height="50" relative="1" as="geometry">
            <mxPoint x="860" y="480" as="sourcePoint" />
            <mxPoint x="910" y="430" as="targetPoint" />
            <Array as="points">
              <mxPoint x="880" y="495" />
              <mxPoint x="880" y="105" />
            </Array>
          </mxGeometry>
        </mxCell>
        <mxCell id="I0plkO9ro6BUK9R8KUUb-40" value="CIUDADES" style="swimlane;fontStyle=0;childLayout=stackLayout;horizontal=1;startSize=30;horizontalStack=0;resizeParent=1;resizeParentMax=0;resizeLast=0;collapsible=1;marginBottom=0;whiteSpace=wrap;html=1;gradientColor=none;rounded=1;align=center;" vertex="1" parent="1">
          <mxGeometry x="380" y="250" width="140" height="120" as="geometry" />
        </mxCell>
        <mxCell id="I0plkO9ro6BUK9R8KUUb-41" value="Código" style="text;strokeColor=none;fillColor=none;align=center;verticalAlign=middle;spacingLeft=4;spacingRight=4;overflow=hidden;points=[[0,0.5],[1,0.5]];portConstraint=eastwest;rotatable=0;whiteSpace=wrap;html=1;rounded=1;" vertex="1" parent="I0plkO9ro6BUK9R8KUUb-40">
          <mxGeometry y="30" width="140" height="30" as="geometry" />
        </mxCell>
        <mxCell id="I0plkO9ro6BUK9R8KUUb-42" value="Nombre de la ciudad" style="text;strokeColor=none;fillColor=none;align=center;verticalAlign=middle;spacingLeft=4;spacingRight=4;overflow=hidden;points=[[0,0.5],[1,0.5]];portConstraint=eastwest;rotatable=0;whiteSpace=wrap;html=1;" vertex="1" parent="I0plkO9ro6BUK9R8KUUb-40">
          <mxGeometry y="60" width="140" height="30" as="geometry" />
        </mxCell>
        <mxCell id="I0plkO9ro6BUK9R8KUUb-43" value="País" style="text;strokeColor=none;fillColor=none;align=center;verticalAlign=middle;spacingLeft=4;spacingRight=4;overflow=hidden;points=[[0,0.5],[1,0.5]];portConstraint=eastwest;rotatable=0;whiteSpace=wrap;html=1;" vertex="1" parent="I0plkO9ro6BUK9R8KUUb-40">
          <mxGeometry y="90" width="140" height="30" as="geometry" />
        </mxCell>
        <mxCell id="I0plkO9ro6BUK9R8KUUb-46" value="" style="endArrow=none;html=1;rounded=1;entryX=0;entryY=0.5;entryDx=0;entryDy=0;exitX=1;exitY=0.25;exitDx=0;exitDy=0;startArrow=openThin;startFill=0;" edge="1" parent="1" source="I0plkO9ro6BUK9R8KUUb-40" target="I0plkO9ro6BUK9R8KUUb-12">
          <mxGeometry width="50" height="50" relative="1" as="geometry">
            <mxPoint x="570" y="380" as="sourcePoint" />
            <mxPoint x="620" y="330" as="targetPoint" />
            <Array as="points">
              <mxPoint x="560" y="280" />
              <mxPoint x="640" y="280" />
              <mxPoint x="640" y="245" />
            </Array>
          </mxGeometry>
        </mxCell>
        <mxCell id="I0plkO9ro6BUK9R8KUUb-50" value="&lt;font style=&quot;font-size: 18px;&quot;&gt;*&lt;/font&gt;" style="text;html=1;strokeColor=none;fillColor=none;align=center;verticalAlign=middle;whiteSpace=wrap;rounded=0;fontStyle=1" vertex="1" parent="1">
          <mxGeometry x="940" y="105" width="20" height="25" as="geometry" />
        </mxCell>
        <mxCell id="I0plkO9ro6BUK9R8KUUb-51" value="&lt;font style=&quot;font-size: 12px;&quot;&gt;1&lt;/font&gt;" style="text;html=1;strokeColor=none;fillColor=none;align=center;verticalAlign=middle;whiteSpace=wrap;rounded=0;fontStyle=1" vertex="1" parent="1">
          <mxGeometry x="810" y="470" width="20" height="25" as="geometry" />
        </mxCell>
        <mxCell id="I0plkO9ro6BUK9R8KUUb-52" value="&lt;font style=&quot;font-size: 12px;&quot;&gt;1&lt;/font&gt;" style="text;html=1;strokeColor=none;fillColor=none;align=center;verticalAlign=middle;whiteSpace=wrap;rounded=0;fontStyle=1" vertex="1" parent="1">
          <mxGeometry x="810" y="-50" width="20" height="25" as="geometry" />
        </mxCell>
        <mxCell id="I0plkO9ro6BUK9R8KUUb-54" value="&lt;font style=&quot;font-size: 18px;&quot;&gt;*&lt;/font&gt;" style="text;html=1;strokeColor=none;fillColor=none;align=center;verticalAlign=middle;whiteSpace=wrap;rounded=0;fontStyle=1" vertex="1" parent="1">
          <mxGeometry x="940" y="62.5" width="20" height="25" as="geometry" />
        </mxCell>
        <mxCell id="I0plkO9ro6BUK9R8KUUb-55" value="&lt;font style=&quot;font-size: 10px;&quot;&gt;Partida&lt;/font&gt;" style="text;html=1;strokeColor=none;fillColor=none;align=center;verticalAlign=middle;whiteSpace=wrap;rounded=0;rotation=-90;" vertex="1" parent="1">
          <mxGeometry x="620" y="87.5" width="60" height="30" as="geometry" />
        </mxCell>
        <mxCell id="I0plkO9ro6BUK9R8KUUb-56" value="&lt;font style=&quot;font-size: 12px;&quot;&gt;1&lt;/font&gt;" style="text;html=1;strokeColor=none;fillColor=none;align=center;verticalAlign=middle;whiteSpace=wrap;rounded=0;fontStyle=1" vertex="1" parent="1">
          <mxGeometry x="650" y="205" width="20" height="25" as="geometry" />
        </mxCell>
        <mxCell id="I0plkO9ro6BUK9R8KUUb-57" value="&lt;font style=&quot;font-size: 12px;&quot;&gt;1&lt;/font&gt;" style="text;html=1;strokeColor=none;fillColor=none;align=center;verticalAlign=middle;whiteSpace=wrap;rounded=0;fontStyle=1" vertex="1" parent="1">
          <mxGeometry x="810" y="205" width="20" height="25" as="geometry" />
        </mxCell>
        <mxCell id="I0plkO9ro6BUK9R8KUUb-59" value="&lt;font style=&quot;font-size: 10px;&quot;&gt;Llegada&lt;/font&gt;" style="text;html=1;strokeColor=none;fillColor=none;align=center;verticalAlign=middle;whiteSpace=wrap;rounded=0;rotation=90;" vertex="1" parent="1">
          <mxGeometry x="800" y="87.5" width="60" height="30" as="geometry" />
        </mxCell>
        <mxCell id="I0plkO9ro6BUK9R8KUUb-60" value="&lt;font style=&quot;font-size: 18px;&quot;&gt;*&lt;/font&gt;" style="text;html=1;strokeColor=none;fillColor=none;align=center;verticalAlign=middle;whiteSpace=wrap;rounded=0;fontStyle=1" vertex="1" parent="1">
          <mxGeometry x="650" width="20" height="25" as="geometry" />
        </mxCell>
        <mxCell id="I0plkO9ro6BUK9R8KUUb-61" value="&lt;font style=&quot;font-size: 18px;&quot;&gt;*&lt;/font&gt;" style="text;html=1;strokeColor=none;fillColor=none;align=center;verticalAlign=middle;whiteSpace=wrap;rounded=0;fontStyle=1" vertex="1" parent="1">
          <mxGeometry x="810" width="20" height="25" as="geometry" />
        </mxCell>
        <mxCell id="I0plkO9ro6BUK9R8KUUb-62" value="&lt;font style=&quot;font-size: 12px;&quot;&gt;1&lt;/font&gt;" style="text;html=1;strokeColor=none;fillColor=none;align=center;verticalAlign=middle;whiteSpace=wrap;rounded=0;fontStyle=1" vertex="1" parent="1">
          <mxGeometry x="520" y="280" width="20" height="25" as="geometry" />
        </mxCell>
        <mxCell id="I0plkO9ro6BUK9R8KUUb-63" value="&lt;font style=&quot;font-size: 18px;&quot;&gt;*&lt;/font&gt;" style="text;html=1;strokeColor=none;fillColor=none;align=center;verticalAlign=middle;whiteSpace=wrap;rounded=0;fontStyle=1" vertex="1" parent="1">
          <mxGeometry x="650" y="250" width="20" height="25" as="geometry" />
        </mxCell>
        <mxCell id="I0plkO9ro6BUK9R8KUUb-26" value="" style="endArrow=none;html=1;rounded=1;exitX=1.004;exitY=0.01;exitDx=0;exitDy=0;entryX=1;entryY=0.5;entryDx=0;entryDy=0;align=center;startArrow=openThin;startFill=0;exitPerimeter=0;" edge="1" parent="1" source="I0plkO9ro6BUK9R8KUUb-12" target="I0plkO9ro6BUK9R8KUUb-21">
          <mxGeometry width="50" height="50" relative="1" as="geometry">
            <mxPoint x="810" y="240" as="sourcePoint" />
            <mxPoint x="830" y="580" as="targetPoint" />
            <Array as="points">
              <mxPoint x="840" y="230" />
              <mxPoint x="840" y="-5" />
            </Array>
          </mxGeometry>
        </mxCell>
      </root>
    </mxGraphModel>
  </diagram>
</mxfile>
